<svg width="23" height="23" viewBox="0 0 23 23" fill="none" xmlns="http://www.w3.org/2000/svg">
<path fill-rule="evenodd" clip-rule="evenodd" d="M7.5 2.5C7.5 1.11929 8.61929 0 10 0H12.5C13.8807 0 15 1.11929 15 2.5V5C15 6.12346 14.2589 7.07383 13.239 7.38898C12.8432 7.51126 12.5 7.83579 12.5 8.25V9.25C12.5 9.66421 12.8358 10 13.25 10H17.5C18.8807 10 20 11.1193 20 12.5V15C21.3807 15 22.5 16.1193 22.5 17.5V20C22.5 21.3807 21.3807 22.5 20 22.5H17.5C16.1193 22.5 15 21.3807 15 20V17.5C15 16.1193 16.1193 15 17.5 15V13.25C17.5 12.8358 17.1642 12.5 16.75 12.5H5.75C5.33579 12.5 5 12.8358 5 13.25V15C6.38071 15 7.5 16.1193 7.5 17.5V20C7.5 21.3807 6.38071 22.5 5 22.5H2.5C1.11929 22.5 0 21.3807 0 20V17.5C0 16.1193 1.11929 15 2.5 15V12.5C2.5 11.1193 3.61929 10 5 10H9.25C9.66421 10 10 9.66421 10 9.25V8.25C10 7.83579 9.65676 7.51126 9.26101 7.38898C8.24105 7.07383 7.5 6.12346 7.5 5V2.5ZM12.5 3.25C12.5 2.83579 12.1642 2.5 11.75 2.5H10.75C10.3358 2.5 10 2.83579 10 3.25V4.25C10 4.66421 10.3358 5 10.75 5H11.75C12.1642 5 12.5 4.66421 12.5 4.25V3.25ZM3.25 17.5C2.83579 17.5 2.5 17.8358 2.5 18.25V19.25C2.5 19.6642 2.83579 20 3.25 20H4.25C4.66421 20 5 19.6642 5 19.25V18.25C5 17.8358 4.66421 17.5 4.25 17.5H3.25ZM18.25 17.5C17.8358 17.5 17.5 17.8358 17.5 18.25V19.25C17.5 19.6642 17.8358 20 18.25 20H19.25C19.6642 20 20 19.6642 20 19.25V18.25C20 17.8358 19.6642 17.5 19.25 17.5H18.25Z" fill="white" fill-opacity="0.6"/>
</svg>
