<svg width="20" height="15" viewBox="0 0 20 15" fill="none" xmlns="http://www.w3.org/2000/svg">
<path fill-rule="evenodd" clip-rule="evenodd" d="M7.27275 7.2728C9.2819 7.2728 10.9091 5.6455 10.9091 3.63638C10.9091 1.62728 9.2819 0 7.27275 0C5.26366 0 3.63638 1.62728 3.63638 3.63638C3.63638 5.6455 5.26366 7.2728 7.27275 7.2728ZM7.27275 1.81819C8.2728 1.81819 9.0909 2.63637 9.0909 3.63638C9.0909 4.63638 8.2728 5.4546 7.27275 5.4546C6.27275 5.4546 5.45457 4.63638 5.45457 3.63638C5.45457 2.63637 6.27275 1.81819 7.27275 1.81819ZM16.3636 3.63638C16.3636 5.6455 14.7363 7.2728 12.7272 7.2728C12.3 7.2728 11.9 7.1818 11.5182 7.0546C12.2727 6.1182 12.7272 4.92729 12.7272 3.63638C12.7272 2.34546 12.2727 1.15455 11.5182 0.21818C11.9 0.0909102 12.3 0 12.7272 0C14.7363 0 16.3636 1.62728 16.3636 3.63638ZM16.3636 11.8182C16.3636 10.2909 15.4909 9.1455 14.2454 8.3C16.7545 8.6637 20 9.8364 20 11.8182V13.5455C20 14.0978 19.5523 14.5455 19 14.5455H17.3636C16.8113 14.5455 16.3636 14.0978 16.3636 13.5455V11.8182ZM0 11.8182C0 9.4 4.84547 8.1818 7.27275 8.1818C9.7 8.1818 14.5455 9.4 14.5455 11.8182V13.5455C14.5455 14.0978 14.0978 14.5455 13.5455 14.5455H1C0.44772 14.5455 0 14.0978 0 13.5455V11.8182ZM1.81819 11.8273V12.7273H12.7273V11.8182C12.5455 11.1728 9.7273 10 7.27275 10C4.8182 10 2.00001 11.1728 1.81819 11.8273Z" fill="#90909B"/>
</svg>
