<svg width="17" height="17" viewBox="0 0 17 17" fill="none" xmlns="http://www.w3.org/2000/svg">
<path d="M8.33329 0C8.79353 1.58197e-07 9.16663 0.373096 9.16663 0.833333C9.16663 1.29357 8.79353 1.66667 8.33329 1.66667C7.01475 1.66667 5.726 2.05799 4.62968 2.79053C3.53341 3.52304 2.67903 4.56397 2.17444 5.78206C1.66988 7.00017 1.53721 8.34065 1.79439 9.63379C2.05163 10.927 2.68659 12.1153 3.61894 13.0477C4.55129 13.98 5.73963 14.615 7.03284 14.8722C8.32598 15.1294 9.66645 14.9967 10.8846 14.4922C12.1027 13.9876 13.1436 13.1332 13.8761 12.0369C14.6086 10.9406 15 9.65188 15 8.33333C15 7.8731 15.3731 7.5 15.8333 7.5C16.2935 7.5 16.6666 7.8731 16.6666 8.33333C16.6666 9.98151 16.1777 11.5926 15.262 12.9631C14.3463 14.3334 13.0452 15.402 11.5226 16.0327C9.99986 16.6634 8.32382 16.8279 6.70731 16.5063C5.09091 16.1848 3.60593 15.3915 2.44055 14.2261C1.27517 13.0607 0.481853 11.5757 0.160277 9.95931C-0.161266 8.3428 0.00317882 6.66676 0.63391 5.14404C1.26463 3.62139 2.33322 2.32028 3.70357 1.40462C5.07398 0.488946 6.68512 5.89868e-07 8.33329 0ZM6.95471 3.52702C7.39709 3.40017 7.85891 3.65595 7.9858 4.09831C8.11266 4.54072 7.85692 5.00254 7.41451 5.1294L7.21106 5.1945C6.74298 5.36185 6.31719 5.63203 5.96594 5.98633C5.56449 6.3913 5.27365 6.89275 5.12121 7.44222C4.9688 7.99181 4.95961 8.57199 5.09517 9.12598C5.23072 9.6797 5.50641 10.1893 5.89514 10.6063C6.28406 11.0233 6.77375 11.3341 7.31685 11.508C7.86003 11.6818 8.43929 11.7136 8.99817 11.5999C9.55695 11.4862 10.0774 11.2308 10.5094 10.8586C10.9414 10.4863 11.2706 10.0093 11.4656 9.47347C11.623 9.04109 12.1009 8.81823 12.5333 8.97542C12.9658 9.13282 13.1887 9.61069 13.0314 10.0431C12.7388 10.8469 12.2454 11.5624 11.5975 12.1208C10.9494 12.6792 10.1685 13.0627 9.3302 13.2332C8.49193 13.4038 7.62376 13.3565 6.80904 13.0957C5.99431 12.8349 5.26031 12.3688 4.67688 11.7432C4.09343 11.1175 3.67986 10.3525 3.47652 9.52148C3.27325 8.6906 3.28618 7.82135 3.51477 6.99707C3.74339 6.1727 4.18041 5.4212 4.78267 4.81364C5.38487 4.20617 6.1325 3.76285 6.95471 3.52702ZM11.8684 0.673014C12.0807 0.460722 12.3913 0.378844 12.6806 0.458984C12.9699 0.539135 13.1937 0.769135 13.2666 1.06038L13.7345 2.93213L15.6062 3.40007C15.8975 3.47288 16.1275 3.69669 16.2076 3.986C16.2878 4.27534 16.2059 4.58589 15.9936 4.79818L13.3422 7.44954C13.1633 7.62845 12.9125 7.71661 12.6611 7.6888L10.406 7.43815L8.92248 8.92253C8.59705 9.24796 8.06954 9.24796 7.7441 8.92253C7.41866 8.59709 7.41866 8.06958 7.7441 7.74414L9.22766 6.25977L8.97782 4.00635C8.94987 3.75474 9.03807 3.50339 9.21708 3.32438L11.8684 0.673014ZM10.6787 4.21875L10.8553 5.81055L12.4471 5.98714L13.7736 4.65983L12.845 4.4279C12.5466 4.35322 12.3134 4.12005 12.2387 3.82161L12.006 2.89225L10.6787 4.21875Z" fill="white" fill-opacity="0.8"/>
</svg>
